<?xml version="1.0" encoding="UTF-8" standalone="no"?>
<!-- Created with Inkscape (http://www.inkscape.org/) -->

<svg
   xmlns:dc="http://purl.org/dc/elements/1.1/"
   xmlns:cc="http://creativecommons.org/ns#"
   xmlns:rdf="http://www.w3.org/1999/02/22-rdf-syntax-ns#"
   xmlns:svg="http://www.w3.org/2000/svg"
   xmlns="http://www.w3.org/2000/svg"
   xmlns:sodipodi="http://sodipodi.sourceforge.net/DTD/sodipodi-0.dtd"
   xmlns:inkscape="http://www.inkscape.org/namespaces/inkscape"
   width="276.60419mm"
   height="72.677261mm"
   viewBox="0 0 276.60418 72.677261"
   version="1.1"
   id="svg957"
   inkscape:version="0.92.3 (2405546, 2018-03-11)"
   sodipodi:docname="simuli_logoBW.svg">
  <defs
     id="defs951" />
  <sodipodi:namedview
     id="base"
     pagecolor="#ffffff"
     bordercolor="#666666"
     borderopacity="1.0"
     inkscape:pageopacity="0.0"
     inkscape:pageshadow="2"
     inkscape:zoom="0.7"
     inkscape:cx="261.84743"
     inkscape:cy="-137.31995"
     inkscape:document-units="mm"
     inkscape:current-layer="layer1"
     showgrid="false"
     inkscape:window-width="1920"
     inkscape:window-height="1025"
     inkscape:window-x="0"
     inkscape:window-y="27"
     inkscape:window-maximized="1" />
  <metadata
     id="metadata954">
    <rdf:RDF>
      <cc:Work
         rdf:about="">
        <dc:format>image/svg+xml</dc:format>
        <dc:type
           rdf:resource="http://purl.org/dc/dcmitype/StillImage" />
        <dc:title />
      </cc:Work>
    </rdf:RDF>
  </metadata>
  <g
     inkscape:label="Layer 1"
     inkscape:groupmode="layer"
     id="layer1"
     transform="translate(-1.8369674,-17.622689)">
    <g
       transform="matrix(0.0726482,0,0,0.0726482,-34.472603,-0.52483184)"
       id="g81"
       style="fill:#030204;fill-opacity:1"
       inkscape:export-xdpi="300"
       inkscape:export-ydpi="300">
      <linearGradient
         id="linearGradient1500"
         gradientUnits="userSpaceOnUse"
         x1="935.90198"
         y1="254.92931"
         x2="982.24353"
         y2="1167.1244">
        <stop
           offset="0"
           style="stop-color:#8800BF"
           id="stop1496" />
        <stop
           offset="1"
           style="stop-color:#501950"
           id="stop1498" />
      </linearGradient>
      <circle
         class="st0"
         cx="960.20001"
         cy="732.29999"
         r="9"
         id="circle9"
         style="fill:#030204;fill-opacity:1" />
      <linearGradient
         id="linearGradient1507"
         gradientUnits="userSpaceOnUse"
         x1="978.50299"
         y1="252.76511"
         x2="1024.8445"
         y2="1164.9602">
        <stop
           offset="0"
           style="stop-color:#8800BF"
           id="stop1503" />
        <stop
           offset="1"
           style="stop-color:#501950"
           id="stop1505" />
      </linearGradient>
      <circle
         class="st1"
         cx="1006.7"
         cy="808.5"
         r="6.6999998"
         id="circle16"
         style="fill:#030204;fill-opacity:1" />
      <linearGradient
         id="linearGradient1514"
         gradientUnits="userSpaceOnUse"
         x1="1022.6625"
         y1="250.5217"
         x2="1069.0039"
         y2="1162.7168">
        <stop
           offset="0"
           style="stop-color:#8800BF"
           id="stop1510" />
        <stop
           offset="1"
           style="stop-color:#501950"
           id="stop1512" />
      </linearGradient>
      <circle
         class="st2"
         cx="1050.6"
         cy="799.5"
         r="9"
         id="circle23"
         style="fill:#030204;fill-opacity:1" />
      <linearGradient
         id="linearGradient1521"
         gradientUnits="userSpaceOnUse"
         x1="1030.6899"
         y1="250.11391"
         x2="1077.0314"
         y2="1162.3091">
        <stop
           offset="0"
           style="stop-color:#8800BF"
           id="stop1517" />
        <stop
           offset="1"
           style="stop-color:#501950"
           id="stop1519" />
      </linearGradient>
      <circle
         class="st3"
         cx="1056.3"
         cy="754.70001"
         r="18.200001"
         id="circle30"
         style="fill:#030204;fill-opacity:1" />
      <linearGradient
         id="linearGradient1528"
         gradientUnits="userSpaceOnUse"
         x1="1007.8979"
         y1="251.2718"
         x2="1054.2394"
         y2="1163.4669">
        <stop
           offset="0"
           style="stop-color:#8800BF"
           id="stop1524" />
        <stop
           offset="1"
           style="stop-color:#501950"
           id="stop1526" />
      </linearGradient>
      <circle
         class="st4"
         cx="1038.1"
         cy="845.5"
         r="18.200001"
         id="circle37"
         style="fill:#030204;fill-opacity:1" />
      <linearGradient
         id="linearGradient1535"
         gradientUnits="userSpaceOnUse"
         x1="980.66107"
         y1="252.6555"
         x2="1027.0026"
         y2="1164.8506">
        <stop
           offset="0"
           style="stop-color:#8800BF"
           id="stop1531" />
        <stop
           offset="1"
           style="stop-color:#501950"
           id="stop1533" />
      </linearGradient>
      <circle
         class="st5"
         cx="1005.9"
         cy="750"
         r="16.1"
         id="circle44"
         style="fill:#030204;fill-opacity:1" />
      <linearGradient
         id="linearGradient1542"
         gradientUnits="userSpaceOnUse"
         x1="939.87598"
         y1="254.7274"
         x2="986.21753"
         y2="1166.9226">
        <stop
           offset="0"
           style="stop-color:#8800BF"
           id="stop1538" />
        <stop
           offset="1"
           style="stop-color:#501950"
           id="stop1540" />
      </linearGradient>
      <circle
         class="st6"
         cx="966.79999"
         cy="785.09998"
         r="10.4"
         id="circle51"
         style="fill:#030204;fill-opacity:1" />
      <linearGradient
         id="linearGradient1549"
         gradientUnits="userSpaceOnUse"
         x1="970.52161"
         y1="253.17059"
         x2="1016.8631"
         y2="1165.3657">
        <stop
           offset="0"
           style="stop-color:#8800BF"
           id="stop1545" />
        <stop
           offset="1"
           style="stop-color:#501950"
           id="stop1547" />
      </linearGradient>
      <circle
         class="st7"
         cx="993.29999"
         cy="702.29999"
         r="6.6999998"
         id="circle58"
         style="fill:#030204;fill-opacity:1" />
      <linearGradient
         id="linearGradient1556"
         gradientUnits="userSpaceOnUse"
         x1="901.7879"
         y1="256.66241"
         x2="948.12927"
         y2="1168.8575">
        <stop
           offset="0"
           style="stop-color:#8800BF"
           id="stop1552" />
        <stop
           offset="1"
           style="stop-color:#501950"
           id="stop1554" />
      </linearGradient>
      <path
         inkscape:connector-curvature="0"
         class="st8"
         d="m 1226.5,404.1 c -1.7,3.8 -2.7,8.1 -2.7,12.6 0,16.8 13.6,30.4 30.4,30.4 16.8,0 30.4,-13.6 30.4,-30.4 0,-16.8 -13.6,-30.4 -30.4,-30.4 -5.1,0 -9.8,1.2 -14,3.4 C 1169,342.2 1086,317 1000.1,317 c -238.7,0 -433,194.2 -433,433 0,25.2 2.1,50 5.9,74.1 -9.3,5.2 -15.7,15.2 -15.7,26.6 0,16.8 13.6,30.4 30.4,30.4 16.8,0 30.4,-13.6 30.4,-30.4 0,-15.3 -11.3,-27.9 -26,-30.1 -3.7,-23 -5.6,-46.6 -5.6,-70.6 0,-228 185.5,-413.4 413.4,-413.4 81,0 159.3,23.3 226.6,67.5 z m 27.7,-3.3 c 8.8,0 15.9,7.1 15.9,15.9 0,8.8 -7.1,15.9 -15.9,15.9 -8.8,0 -15.9,-7.1 -15.9,-15.9 0,-8.8 7.1,-15.9 15.9,-15.9 z M 603.6,850.7 c 0,8.8 -7.1,15.9 -15.9,15.9 -8.8,0 -15.9,-7.1 -15.9,-15.9 0,-8.8 7.1,-15.9 15.9,-15.9 8.8,0 15.9,7.2 15.9,15.9 z"
         id="path65"
         style="fill:#030204;fill-opacity:1" />
      <linearGradient
         id="linearGradient1563"
         gradientUnits="userSpaceOnUse"
         x1="974.72339"
         y1="252.95711"
         x2="1021.0648"
         y2="1165.1522">
        <stop
           offset="0"
           style="stop-color:#8800BF"
           id="stop1559" />
        <stop
           offset="1"
           style="stop-color:#501950"
           id="stop1561" />
      </linearGradient>
      <path
         inkscape:connector-curvature="0"
         class="st9"
         d="m 1447.4,526.2 -4,-7.9 -8.3,3.2 c -2.2,0.9 -4.5,1.8 -6.8,2.8 l -67.4,-19.1 c 16.7,-8.8 32.4,-18.5 46.5,-28.6 l 7.9,-5.6 -5.6,-7.9 C 1316,329.5 1162.9,249.8 1000,249.8 724.2,249.8 499.8,474.2 499.8,750 c 0,97.3 25.2,189.1 73,265.3 l 5,7.9 8.1,-4.6 c 4.4,-2.5 9.7,-5.8 15.7,-9.9 l 34.9,-3.2 c 1.4,4.2 4.7,7.5 9,8.8 l -1.6,25.5 c -8.6,4.7 -16.2,9 -22.5,12.7 l -9.5,5.6 6.8,8.8 c 93.1,119.9 225,183.3 381.3,183.3 275.8,0 500.2,-224.4 500.2,-500.2 0,-78.7 -17.8,-154 -52.8,-223.8 z m -28.1,2.2 c -18.4,9.1 -39,22.6 -59.1,40.2 l -56.7,4.6 c -0.5,-1.5 -1.2,-2.8 -2.1,-4 l 46.7,-57.6 c 1.5,-0.7 2.9,-1.4 4.3,-2.1 z m -368,87.6 c -0.5,-23.4 9.1,-46 26.3,-62.1 4.1,-3.8 8.4,-7.1 13,-9.9 v 115.6 c -12.2,-13.8 -25.2,-25.8 -38.8,-36.1 -0.2,-2.5 -0.4,-5 -0.5,-7.5 z m 234.8,52.2 -80.4,-12.3 c 0.2,-1 0.3,-1.9 0.3,-3 0,-1.1 -0.1,-2.1 -0.4,-3.1 l 76.5,-61.4 c 1.8,1.4 3.9,2.3 6.1,2.7 l 4.8,62.5 c -2.3,4.7 -4.7,9.6 -6.9,14.6 z m -64.4,-121.9 55.5,28.1 c -0.2,1 -0.4,2.1 -0.4,3.1 0,2.1 0.5,4 1.3,5.8 l -75.5,60.6 c -1.4,-1.6 -3.2,-2.9 -5.3,-3.7 l 14.2,-93.8 c 3.4,0 6.8,0 10.2,-0.1 z m 75.1,18.3 7.9,-35 c 10.1,-3.5 20.2,-7.5 30,-11.8 z m -6.5,-0.8 c -4.1,0.1 -7.7,1.9 -10.2,4.8 l -45.6,-23.1 c 20.6,-1.9 42,-6.6 63,-13.5 z m -99.4,75.5 c -2.6,0.3 -5,1.2 -6.9,2.7 l -80.8,-104.2 c 11.3,-4.4 23.6,-6.2 36.1,-5 8.7,0.8 17.6,2.8 26.6,5.9 12.2,4.3 25.4,6.6 39.1,7.4 z m -93.7,-98.6 82.6,106.5 c -0.8,1.7 -1.3,3.7 -1.3,5.7 0,0.5 0,1 0.1,1.4 l -81.4,3.9 z m 57.8,241.4 c -6.6,-28.1 -18.6,-56.8 -35.8,-84.3 -7.4,-11.8 -15.4,-22.7 -23.9,-32.8 l 85.7,-4.2 c 2.1,3 5.3,5.1 9,5.7 l 22.7,120.1 c -16.5,4.8 -34.6,4.4 -51.8,-2 -2,-0.8 -4,-1.6 -5.9,-2.5 z m 63.9,2.3 -22.4,-118.4 c 2.4,-0.8 4.5,-2.2 6.1,-4 l 80.9,12.4 c -6.8,16.6 -12.1,34.5 -15.2,53.4 0,0.2 -3.1,15.5 -15.5,31.5 -9,11.6 -20.8,20.1 -33.9,25.1 z m 79.9,-141.3 -4,-52.4 c 4.8,-1.6 8.5,-5.8 9.3,-10.9 l 48.2,-3.9 c -19.7,18.5 -38.4,41 -53.5,67.2 z M 968.9,914.4 c 0.5,23.4 -9.1,46 -26.3,62.1 -4.1,3.8 -8.4,7.1 -13,9.9 V 870.8 c 12.2,13.8 25.2,25.8 38.8,36.1 0.2,2.5 0.4,5 0.5,7.5 z M 737.4,999 734.2,965.8 c 2.3,-0.8 4.3,-2.2 5.9,-4 l 49.7,25.2 c -17.3,2.1 -35,6.5 -52.4,12 z m -6.8,-137.4 84,12.9 c -0.2,1 -0.3,1.9 -0.3,3 0,1.1 0.1,2.1 0.4,3.1 L 738,942 c -1.8,-1.4 -3.9,-2.3 -6.1,-2.7 l -5.3,-69.7 c 1.3,-2.6 2.6,-5.3 4,-8 z m 77.8,123.9 c -2.2,0.1 -4.4,0.2 -6.6,0.3 L 743,956 c 0.2,-1 0.4,-2 0.4,-3.1 0,-2.1 -0.5,-4 -1.3,-5.8 l 75.5,-60.5 c 1.4,1.6 3.2,2.9 5.3,3.7 z m 20.9,-94.4 c 2.6,-0.3 5,-1.2 6.9,-2.7 L 917,992.6 c -11.3,4.4 -23.6,6.2 -36.1,5 -8.7,-0.8 -17.6,-2.8 -26.6,-5.9 -12.2,-4.2 -25.4,-6.1 -39.3,-6.3 z M 923,989.7 840.4,883.2 c 0.8,-1.7 1.3,-3.7 1.3,-5.7 0,-0.5 0,-1 -0.1,-1.4 L 923,872.2 Z M 865.1,748.3 c 6.6,28.1 18.6,56.8 35.8,84.3 7.4,11.8 15.4,22.7 23.9,32.9 l -85.7,4.2 c -2.1,-3 -5.3,-5.1 -9,-5.7 L 807.4,743.9 c 16.5,-4.8 34.6,-4.4 51.8,2 2.1,0.7 4,1.5 5.9,2.4 z m -63.9,-2.3 22.4,118.4 c -2.4,0.8 -4.5,2.2 -6.1,4 l -84.1,-12.9 c 7.7,-16.6 14,-34.3 18.4,-52.9 0,-0.1 3.1,-15.5 15.5,-31.5 9.1,-11.6 20.9,-20.1 33.9,-25.1 z m -80.4,134.1 4.6,59.7 c -4.8,1.6 -8.5,5.8 -9.3,10.9 l -51.8,4.2 c 19.9,-20.9 40,-46 56.5,-74.8 z m -63.5,81.9 58.8,-4.8 -56.8,34.1 c -2.5,-2.4 -5.9,-4 -9.6,-4 -6.8,0 -12.5,5 -13.6,11.5 l -24,2.2 c 13.4,-9.9 29.1,-23.1 45.2,-39 z m -5.3,52.7 c 6.4,-1.1 11.3,-6.8 11.3,-13.5 0,-1.5 -0.2,-2.9 -0.7,-4.2 l 57.2,-34.4 c 2.1,2.1 4.8,3.5 7.8,3.9 l 3.4,34.6 c -29.7,10 -57.9,23.3 -80.4,35.1 z m 348,216 c -148.3,0 -269,-56.2 -358.9,-167 42.2,-23.9 144.3,-75.2 206.8,-53.5 10.5,3.6 21,6 31.2,6.9 28.5,2.7 55.7,-6.7 76.7,-26.3 21.3,-19.9 33.2,-47.9 32.5,-76.8 -0.1,-5.9 -0.8,-11.8 -1.9,-17.6 C 974.5,836.2 935.1,785 904.2,752.6 893.4,741.3 880.5,732.9 866.1,727.5 824.6,712 778.7,724.7 752,759.1 c -15.5,20 -19.2,39.2 -19.2,39.5 -21.5,90.9 -99.1,166.9 -148.4,198.1 -42.6,-71.4 -65,-156.5 -65,-246.7 0,-265 215.6,-480.7 480.7,-480.7 153.2,0 297.6,73.4 388,196.9 -73.3,49.8 -162.8,72.4 -215.7,54 -10.5,-3.6 -21,-6 -31.2,-6.9 -28.4,-2.6 -55.7,6.7 -76.7,26.3 -21.3,19.9 -33.2,47.9 -32.5,76.8 0.1,5.9 0.8,11.8 1.9,17.6 11.9,60.2 51.3,111.4 82.2,143.8 10.8,11.3 23.7,19.7 38.1,25.1 41.5,15.5 87.4,2.8 114.1,-31.6 15.5,-20 19.2,-39.2 19.3,-40.1 16.2,-97.5 95.1,-164.7 146.5,-188.1 31,64.8 46.7,134.4 46.7,206.9 -0.1,265 -215.8,480.7 -480.8,480.7 z"
         id="path72"
         style="fill:#030204;fill-opacity:1" />
      <linearGradient
         id="linearGradient1570"
         gradientUnits="userSpaceOnUse"
         x1="1062.0692"
         y1="248.51981"
         x2="1108.4108"
         y2="1160.7148">
        <stop
           offset="0"
           style="stop-color:#8800BF"
           id="stop1566" />
        <stop
           offset="1"
           style="stop-color:#501950"
           id="stop1568" />
      </linearGradient>
      <path
         inkscape:connector-curvature="0"
         class="st10"
         d="m 1448.2,709 c 0,-16.8 -13.6,-30.4 -30.4,-30.4 -16.8,0 -30.4,13.6 -30.4,30.4 0,15.2 11.2,27.8 25.8,30.1 0.1,3.6 0.3,7.3 0.3,10.9 0,228 -185.5,413.4 -413.4,413.4 -73.2,0 -139.4,-16.6 -197.2,-48.9 0.6,-2.4 0.9,-4.9 0.9,-7.5 0,-16.8 -13.6,-30.4 -30.4,-30.4 -16.8,0 -30.4,13.6 -30.4,30.4 0,16.8 13.6,30.4 30.4,30.4 7.1,0 13.7,-2.5 18.8,-6.5 60.9,34.4 130.7,52.1 207.8,52.1 238.7,0 433,-194.2 433,-432.9 0,-4.8 -0.2,-9.6 -0.4,-14.4 9.3,-5.3 15.6,-15.3 15.6,-26.7 z m -674.8,413.9 c -8.8,0 -15.9,-7.1 -15.9,-15.9 0,-8.8 7.1,-15.9 15.9,-15.9 8.8,0 15.9,7.1 15.9,15.9 0,8.8 -7.2,15.9 -15.9,15.9 z m 644.4,-398 c -8.8,0 -15.9,-7.1 -15.9,-15.9 0,-8.8 7.1,-15.9 15.9,-15.9 8.8,0 15.9,7.1 15.9,15.9 0,8.8 -7.2,15.9 -15.9,15.9 z"
         id="path79"
         style="fill:#030204;fill-opacity:1" />
    </g>
    <text
       xml:space="preserve"
       style="font-style:normal;font-weight:normal;font-size:13.77956581px;line-height:1.25;font-family:sans-serif;letter-spacing:0px;word-spacing:0px;fill:#000000;fill-opacity:1;stroke:none;stroke-width:0.34448913"
       x="83.322525"
       y="75.808693"
       id="text862"><tspan
         sodipodi:role="line"
         id="tspan860"
         x="83.322525"
         y="75.808693"
         style="font-style:normal;font-variant:normal;font-weight:normal;font-stretch:normal;font-size:66.14191437px;font-family:'Ubuntu Mono';-inkscape-font-specification:'Ubuntu Mono';stroke-width:0.34448913">Simuli</tspan></text>
  </g>
</svg>
